<svg width="22" height="23" viewBox="0 0 22 23" fill="none" xmlns="http://www.w3.org/2000/svg">
<path d="M21.2285 1.01298C21.1088 0.893935 20.9575 0.811516 20.7924 0.775408C20.6274 0.739301 20.4555 0.751006 20.2969 0.809149L0.776709 7.89878C0.608364 7.96256 0.463429 8.07598 0.361153 8.22398C0.258877 8.37198 0.204102 8.54756 0.204102 8.72739C0.204102 8.90722 0.258877 9.08279 0.361153 9.23079C0.463429 9.37879 0.608364 9.49221 0.776709 9.55599L8.39844 12.5957L14.0238 6.95941L15.2749 8.20896L9.62289 13.8541L12.6751 21.4666C12.7409 21.6315 12.8547 21.7728 13.0018 21.8724C13.1489 21.9719 13.3226 22.0251 13.5003 22.0249C13.6796 22.0212 13.8536 21.9634 13.9993 21.8589C14.145 21.7545 14.2557 21.6085 14.3166 21.44L21.4148 1.94349C21.4753 1.7867 21.4899 1.61598 21.4569 1.45123C21.4239 1.28647 21.3447 1.13448 21.2285 1.01298Z" fill="#9A4A4D"/>
</svg>
